<svg id="visual" viewBox="0 0 900 600" width="900" height="600" xmlns="http://www.w3.org/2000/svg" xmlns:xlink="http://www.w3.org/1999/xlink" version="1.1"><g stroke-width="1" stroke-linejoin="bevel"><path d="M571 307L320 600L599 600Z" fill="#060606" stroke="#060606"></path><path d="M571 307L257 323L320 600Z" fill="#050505" stroke="#050505"></path><path d="M599 600L900 305L571 307Z" fill="#040404" stroke="#040404"></path><path d="M900 600L900 305L599 600Z" fill="#050405" stroke="#050405"></path><path d="M257 323L0 600L320 600Z" fill="#020202" stroke="#020202"></path><path d="M900 305L576 0L571 307Z" fill="#050405" stroke="#050405"></path><path d="M571 307L270 0L257 323Z" fill="#010101" stroke="#010101"></path><path d="M270 0L0 286L257 323Z" fill="#010101" stroke="#010101"></path><path d="M257 323L0 286L0 600Z" fill="#030303" stroke="#030303"></path><path d="M576 0L270 0L571 307Z" fill="#060606" stroke="#060606"></path><path d="M900 305L900 0L576 0Z" fill="#010101" stroke="#010101"></path><path d="M270 0L0 0L0 286Z" fill="#000000" stroke="#000000"></path></g></svg>