<svg id="visual" viewBox="0 0 900 600" width="900" height="600" xmlns="http://www.w3.org/2000/svg" xmlns:xlink="http://www.w3.org/1999/xlink" version="1.1"><rect x="0" y="0" width="900" height="600" fill="#140021"></rect><path d="M0 329L129 329L129 346L257 346L257 316L386 316L386 275L514 275L514 358L643 358L643 257L771 257L771 267L900 267L900 361L900 601L900 601L771 601L771 601L643 601L643 601L514 601L514 601L386 601L386 601L257 601L257 601L129 601L129 601L0 601Z" fill="#9900ff"></path><path d="M0 438L129 438L129 394L257 394L257 366L386 366L386 439L514 439L514 438L643 438L643 435L771 435L771 431L900 431L900 405L900 601L900 601L771 601L771 601L643 601L643 601L514 601L514 601L386 601L386 601L257 601L257 601L129 601L129 601L0 601Z" fill="#7700c6"></path><path d="M0 456L129 456L129 469L257 469L257 466L386 466L386 524L514 524L514 530L643 530L643 489L771 489L771 442L900 442L900 486L900 601L900 601L771 601L771 601L643 601L643 601L514 601L514 601L386 601L386 601L257 601L257 601L129 601L129 601L0 601Z" fill="#560090"></path></svg>