<svg id="visual" viewBox="0 0 900 600" width="900" height="600" xmlns="http://www.w3.org/2000/svg" xmlns:xlink="http://www.w3.org/1999/xlink" version="1.1"><path d="M0 61L21.5 68C43 75 86 89 128.8 91C171.7 93 214.3 83 257.2 78C300 73 343 73 385.8 78C428.7 83 471.3 93 514.2 94C557 95 600 87 642.8 88C685.7 89 728.3 99 771.2 100C814 101 857 93 878.5 89L900 85L900 0L878.5 0C857 0 814 0 771.2 0C728.3 0 685.7 0 642.8 0C600 0 557 0 514.2 0C471.3 0 428.7 0 385.8 0C343 0 300 0 257.2 0C214.3 0 171.7 0 128.8 0C86 0 43 0 21.5 0L0 0Z" fill="#111111"></path><path d="M0 139L21.5 145C43 151 86 163 128.8 160C171.7 157 214.3 139 257.2 136C300 133 343 145 385.8 157C428.7 169 471.3 181 514.2 179C557 177 600 161 642.8 155C685.7 149 728.3 153 771.2 157C814 161 857 165 878.5 167L900 169L900 83L878.5 87C857 91 814 99 771.2 98C728.3 97 685.7 87 642.8 86C600 85 557 93 514.2 92C471.3 91 428.7 81 385.8 76C343 71 300 71 257.2 76C214.3 81 171.7 91 128.8 89C86 87 43 73 21.5 66L0 59Z" fill="#0d0d0d"></path><path d="M0 355L21.5 352C43 349 86 343 128.8 342C171.7 341 214.3 345 257.2 349C300 353 343 357 385.8 355C428.7 353 471.3 345 514.2 342C557 339 600 341 642.8 346C685.7 351 728.3 359 771.2 352C814 345 857 323 878.5 312L900 301L900 167L878.5 165C857 163 814 159 771.2 155C728.3 151 685.7 147 642.8 153C600 159 557 175 514.2 177C471.3 179 428.7 167 385.8 155C343 143 300 131 257.2 134C214.3 137 171.7 155 128.8 158C86 161 43 149 21.5 143L0 137Z" fill="#090909"></path><path d="M0 457L21.5 449C43 441 86 425 128.8 423C171.7 421 214.3 433 257.2 444C300 455 343 465 385.8 463C428.7 461 471.3 447 514.2 445C557 443 600 453 642.8 454C685.7 455 728.3 447 771.2 437C814 427 857 415 878.5 409L900 403L900 299L878.5 310C857 321 814 343 771.2 350C728.3 357 685.7 349 642.8 344C600 339 557 337 514.2 340C471.3 343 428.7 351 385.8 353C343 355 300 351 257.2 347C214.3 343 171.7 339 128.8 340C86 341 43 347 21.5 350L0 353Z" fill="#050405"></path><path d="M0 601L21.5 601C43 601 86 601 128.8 601C171.7 601 214.3 601 257.2 601C300 601 343 601 385.8 601C428.7 601 471.3 601 514.2 601C557 601 600 601 642.8 601C685.7 601 728.3 601 771.2 601C814 601 857 601 878.5 601L900 601L900 401L878.5 407C857 413 814 425 771.2 435C728.3 445 685.7 453 642.8 452C600 451 557 441 514.2 443C471.3 445 428.7 459 385.8 461C343 463 300 453 257.2 442C214.3 431 171.7 419 128.8 421C86 423 43 439 21.5 447L0 455Z" fill="#000000"></path></svg>