<svg id="visual" viewBox="0 0 900 900" width="900" height="900" xmlns="http://www.w3.org/2000/svg" xmlns:xlink="http://www.w3.org/1999/xlink" version="1.1"><g><g transform="translate(212 319)"><path d="M112.2 -58.6C142 -13.3 160.3 44.9 139.6 82.9C119 120.8 59.5 138.6 7.6 134.2C-44.3 129.9 -88.7 103.3 -118.2 60.2C-147.7 17.1 -162.3 -42.5 -140.1 -83.5C-118 -124.5 -59 -146.9 -8.9 -141.7C41.2 -136.6 82.5 -104 112.2 -58.6Z" stroke="#00b793" fill="none" stroke-width="1"></path></g><g transform="translate(766 701)"><path d="M103.1 -63.5C119.6 -30.9 109.3 13.2 87.7 43.9C66.1 74.6 33 91.9 -4.4 94.4C-41.9 97 -83.8 84.8 -107 53.2C-130.2 21.6 -134.7 -29.4 -113.8 -64.6C-92.8 -99.8 -46.4 -119.2 -1.6 -118.3C43.3 -117.4 86.6 -96.2 103.1 -63.5Z" stroke="#00b793" fill="none" stroke-width="1"></path></g><g transform="translate(716 160)"><path d="M123.2 -71.6C146 -31.6 141.5 23.8 116.4 59.6C91.3 95.5 45.7 112 -3.6 114.1C-52.9 116.2 -105.8 103.9 -127 70.2C-148.2 36.6 -137.7 -18.4 -111.3 -60.6C-84.8 -102.7 -42.4 -132 3.9 -134.2C50.2 -136.5 100.3 -111.7 123.2 -71.6Z" stroke="#00b793" fill="none" stroke-width="1"></path></g></g></svg>