<svg id="visual" viewBox="0 0 900 900" width="900" height="900" xmlns="http://www.w3.org/2000/svg" xmlns:xlink="http://www.w3.org/1999/xlink" version="1.1"><g><g transform="translate(260 771)"><path d="M92.2 -63.5C110.1 -22.1 108.9 20 90.3 51.1C71.8 82.2 35.9 102.3 2.4 100.9C-31 99.5 -62.1 76.6 -78.9 46.5C-95.7 16.4 -98.4 -21 -82.8 -60.9C-67.3 -100.9 -33.7 -143.5 1.7 -144.5C37.1 -145.5 74.2 -104.9 92.2 -63.5Z" stroke="#b4007e" fill="none" stroke-width="1"></path></g><g transform="translate(626 205)"><path d="M86.5 -58.2C101.8 -23.5 96.6 14.6 78.8 51.4C61 88.1 30.5 123.4 -3 125.2C-36.5 126.9 -73 95.1 -89.5 59.1C-106 23.1 -102.4 -17 -84.2 -53.4C-65.9 -89.8 -33 -122.4 1.3 -123.2C35.6 -124 71.3 -92.8 86.5 -58.2Z" stroke="#b4007e" fill="none" stroke-width="1"></path></g></g></svg>