<svg xmlns="http://www.w3.org/2000/svg" width="782" height="547"><defs><linearGradient id="a" x1="50%" x2="50%" y1="100%" y2="-11.281%"><stop offset="0%" stop-color="#70B"/><stop offset="52.41%" stop-color="#00008B"/><stop offset="100%" stop-color="#00003B"/></linearGradient><linearGradient id="b" x1="59.433%" x2="39.716%" y1="3.102%" y2="101.142%"><stop offset="0%" stop-color="#88CFDA"/><stop offset=".834%" stop-color="#89CFD9"/><stop offset="47.84%" stop-color="#C8D9BB"/><stop offset="82.18%" stop-color="#F0DFA7"/><stop offset="100%" stop-color="#FFE1A0"/></linearGradient><linearGradient id="c" x1="-.002%" x2="100%" y1="50%" y2="50%"><stop offset="0%" stop-color="#70B"/><stop offset="100%" stop-color="#00008B"/><stop offset="100%"/></linearGradient><linearGradient id="d" x1="78.268%" x2="20.723%" y1="40.668%" y2="44.526%"><stop offset="0%" stop-color="#7102A2"/><stop offset="100%" stop-color="#080E83"/></linearGradient><linearGradient id="e" x1="-.001%" x2="100%" y1="49.999%" y2="49.999%"><stop offset="0%" stop-color="#70B"/><stop offset="100%" stop-color="#00008B"/><stop offset="100%"/></linearGradient><linearGradient id="f" x1=".003%" x2="100.007%" y1="50%" y2="50%"><stop offset="0%" stop-color="#7A9FFF"/><stop offset="78.61%" stop-color="#FFF"/></linearGradient><linearGradient id="g" x1=".007%" x2="100.012%" y1="50%" y2="50%"><stop offset="0%" stop-color="#7A9FFF"/><stop offset="78.61%" stop-color="#FFF"/></linearGradient><linearGradient id="h" x1="82.685%" x2="34.722%" y1="30.73%" y2="70.131%"><stop offset="0%" stop-color="#270036"/><stop offset="59.36%" stop-color="#4F008B"/><stop offset="100%" stop-color="#4C24B1"/></linearGradient><linearGradient id="i" x1="16.575%" x2="57.686%" y1="33.142%" y2="62.845%"><stop offset="0%" stop-color="#270036"/><stop offset="59.36%" stop-color="#4F008B"/><stop offset="100%" stop-color="#4C24B1"/></linearGradient><linearGradient id="j" x1="49.988%" x2="49.988%" y1="-10.024%" y2="118.23%"><stop offset="0%" stop-color="#7633FF"/><stop offset="15.85%" stop-color="#7137FF"/><stop offset="35.35%" stop-color="#6243FF"/><stop offset="56.76%" stop-color="#4957FF"/><stop offset="79.37%" stop-color="#2672FF"/><stop offset="100%" stop-color="#0090FF"/></linearGradient><linearGradient id="k" x1="50.013%" x2="50.013%" y1="25.005%" y2="106.842%"><stop offset="0%" stop-color="#009AFF"/><stop offset="100%" stop-color="#FFF"/></linearGradient><linearGradient id="l" x1="50%" x2="50%" y1="-10.047%" y2="118.233%"><stop offset="0%" stop-color="#009AFF"/><stop offset="100%" stop-color="#FFF"/></linearGradient><linearGradient id="m" x1="49.998%" x2="49.998%" y1="-10.049%" y2="118.262%"><stop offset="0%" stop-color="#009AFF"/><stop offset="100%" stop-color="#FFF"/></linearGradient><linearGradient id="n" x1="-9.218%" x2="103.274%" y1="65.046%" y2="33.727%"><stop offset="0%" stop-color="#009AFF"/><stop offset="100%" stop-color="#FFF"/></linearGradient><linearGradient id="o" x1="106.436%" x2="3.371%" y1="60.619%" y2="37.863%"><stop offset="0%" stop-color="#009AFF"/><stop offset="100%" stop-color="#FFF"/></linearGradient><linearGradient id="p" x1="-.004%" x2="99.992%" y1="49.993%" y2="49.993%"><stop offset="0%" stop-color="#270036"/><stop offset="59.36%" stop-color="#4F008B"/><stop offset="100%" stop-color="#4C24B1"/></linearGradient><linearGradient id="r" x1="-.047%" x2="99.982%" y1="49.981%" y2="49.981%"><stop offset="0%" stop-color="#009AFF"/><stop offset="100%" stop-color="#FFF"/></linearGradient><linearGradient id="s" x1="-.002%" x2="100.028%" y1="49.981%" y2="49.981%"><stop offset="0%" stop-color="#009AFF"/><stop offset="100%" stop-color="#FFF"/></linearGradient><linearGradient id="t" x1=".075%" x2="100.096%" y1="50.024%" y2="50.024%"><stop offset="0%" stop-color="#009AFF"/><stop offset="100%" stop-color="#FFF"/></linearGradient><linearGradient id="u" x1=".08%" x2="99.922%" y1="50.02%" y2="50.02%"><stop offset="0%" stop-color="#009AFF"/><stop offset="100%" stop-color="#FFF"/></linearGradient><linearGradient id="v" x1="-.019%" x2="99.982%" y1="49.971%" y2="49.971%"><stop offset="0%" stop-color="#361A31"/><stop offset="51.34%" stop-color="#3B1868"/><stop offset="100%" stop-color="#1D0038"/></linearGradient><linearGradient id="w" x1="39.42%" x2="49.81%" y1="212.225%" y2="52.92%"><stop offset="0%" stop-color="#1DACFF"/><stop offset="11.2%" stop-color="#20A9FB"/><stop offset="22.63%" stop-color="#28A0EF"/><stop offset="34.18%" stop-color="#3690DA"/><stop offset="45.8%" stop-color="#497BBE"/><stop offset="57.37%" stop-color="#625F99"/><stop offset="58.53%" stop-color="#655C95"/><stop offset="63.67%" stop-color="#6F5F91"/><stop offset="72.3%" stop-color="#896886"/><stop offset="83.36%" stop-color="#B37774"/><stop offset="96.28%" stop-color="#ED8C5C"/><stop offset="100%" stop-color="#FF9254"/></linearGradient><linearGradient id="x" x1=".013%" x2="100.013%" y1="49.986%" y2="49.986%"><stop offset="0%" stop-color="#361A31"/><stop offset="51.34%" stop-color="#3B1868"/><stop offset="100%" stop-color="#1D0038"/></linearGradient><linearGradient id="y" x1="38.897%" x2="49.286%" y1="220.129%" y2="60.827%"><stop offset="0%" stop-color="#1DACFF"/><stop offset="11.2%" stop-color="#20A9FB"/><stop offset="22.63%" stop-color="#28A0EF"/><stop offset="34.18%" stop-color="#3690DA"/><stop offset="45.8%" stop-color="#497BBE"/><stop offset="57.37%" stop-color="#625F99"/><stop offset="58.53%" stop-color="#655C95"/><stop offset="63.67%" stop-color="#6F5F91"/><stop offset="72.3%" stop-color="#896886"/><stop offset="83.36%" stop-color="#B37774"/><stop offset="96.28%" stop-color="#ED8C5C"/><stop offset="100%" stop-color="#FF9254"/></linearGradient><linearGradient id="z" x1="49.918%" x2="50.053%" y1="2.893%" y2="98.554%"><stop offset="0%" stop-color="#A1BAFF"/><stop offset="43.32%" stop-color="#FFF"/></linearGradient><linearGradient id="A" x1="51.387%" x2="48.487%" y1="51.653%" y2="48.753%"><stop offset="0%" stop-color="#1DACFF"/><stop offset="11.2%" stop-color="#20A9FB"/><stop offset="22.63%" stop-color="#28A0EF"/><stop offset="34.18%" stop-color="#3690DA"/><stop offset="45.8%" stop-color="#497BBE"/><stop offset="57.37%" stop-color="#625F99"/><stop offset="58.53%" stop-color="#655C95"/><stop offset="63.67%" stop-color="#6F5F91"/><stop offset="72.3%" stop-color="#896886"/><stop offset="83.36%" stop-color="#B37774"/><stop offset="96.28%" stop-color="#ED8C5C"/><stop offset="100%" stop-color="#FF9254"/></linearGradient><linearGradient id="B" x1="54.024%" x2="45.724%" y1="57.303%" y2="44.551%"><stop offset="0%" stop-color="#1DACFF"/><stop offset="11.2%" stop-color="#20A9FB"/><stop offset="22.63%" stop-color="#28A0EF"/><stop offset="34.18%" stop-color="#3690DA"/><stop offset="45.8%" stop-color="#497BBE"/><stop offset="57.37%" stop-color="#625F99"/><stop offset="58.53%" stop-color="#655C95"/><stop offset="63.67%" stop-color="#6F5F91"/><stop offset="72.3%" stop-color="#896886"/><stop offset="83.36%" stop-color="#B37774"/><stop offset="96.28%" stop-color="#ED8C5C"/><stop offset="100%" stop-color="#FF9254"/></linearGradient><linearGradient id="C" x1="42.1%" x2="57.284%" y1="-23.373%" y2="117.463%"><stop offset="0%" stop-color="#090000"/><stop offset="43.32%" stop-color="#FFF"/><stop offset="100%"/></linearGradient><linearGradient id="D" x1="36.557%" x2="70.7%" y1="75.844%" y2="23.75%"><stop offset="0%" stop-color="#270036"/><stop offset="59.36%" stop-color="#22003D"/><stop offset="100%" stop-color="#272454"/></linearGradient><linearGradient id="E" x1="45.47%" x2="55.135%" y1="11.267%" y2="104.825%"><stop offset="0%" stop-color="#311842"/><stop offset="46.11%" stop-color="#190C4B"/><stop offset="100%" stop-color="#000054"/></linearGradient><linearGradient id="F" x1="16.557%" x2="67.127%" y1="68.811%" y2="40.377%"><stop offset="0%" stop-color="#270036"/><stop offset="59.36%" stop-color="#4F008B"/><stop offset="100%" stop-color="#4C24B1"/></linearGradient><linearGradient id="G" x1="-.012%" x2="99.985%" y1="49.992%" y2="49.992%"><stop offset="0%" stop-color="#311842"/><stop offset="46.11%" stop-color="#190C4B"/><stop offset="100%" stop-color="#000054"/></linearGradient><linearGradient id="H" x1="55.027%" x2="46.689%" y1="61.037%" y2="43.252%"><stop offset="0%" stop-color="#1DACFF"/><stop offset="11.2%" stop-color="#20A9FB"/><stop offset="22.63%" stop-color="#28A0EF"/><stop offset="34.18%" stop-color="#3690DA"/><stop offset="45.8%" stop-color="#497BBE"/><stop offset="57.37%" stop-color="#625F99"/><stop offset="58.53%" stop-color="#655C95"/><stop offset="63.67%" stop-color="#6F5F91"/><stop offset="72.3%" stop-color="#896886"/><stop offset="83.36%" stop-color="#B37774"/><stop offset="96.28%" stop-color="#ED8C5C"/><stop offset="100%" stop-color="#FF9254"/></linearGradient><linearGradient id="I" x1="47.576%" x2="55.145%" y1="9.682%" y2="96.997%"><stop offset="0%" stop-color="#090000"/><stop offset="43.32%" stop-color="#FFF"/><stop offset="100%"/></linearGradient><linearGradient id="J" x1="52.545%" x2="49.352%" y1="52.578%" y2="48.579%"><stop offset="0%" stop-color="#1DACFF"/><stop offset="11.2%" stop-color="#20A9FB"/><stop offset="22.63%" stop-color="#28A0EF"/><stop offset="34.18%" stop-color="#3690DA"/><stop offset="45.8%" stop-color="#497BBE"/><stop offset="57.37%" stop-color="#625F99"/><stop offset="58.53%" stop-color="#655C95"/><stop offset="63.67%" stop-color="#6F5F91"/><stop offset="72.3%" stop-color="#896886"/><stop offset="83.36%" stop-color="#B37774"/><stop offset="96.28%" stop-color="#ED8C5C"/><stop offset="100%" stop-color="#FF9254"/></linearGradient><linearGradient id="K" x1="57.748%" x2="48.391%" y1="61.993%" y2="44.957%"><stop offset="0%" stop-color="#1DACFF"/><stop offset="11.2%" stop-color="#20A9FB"/><stop offset="22.63%" stop-color="#28A0EF"/><stop offset="34.18%" stop-color="#3690DA"/><stop offset="45.8%" stop-color="#497BBE"/><stop offset="57.37%" stop-color="#625F99"/><stop offset="58.53%" stop-color="#655C95"/><stop offset="63.67%" stop-color="#6F5F91"/><stop offset="72.3%" stop-color="#896886"/><stop offset="83.36%" stop-color="#B37774"/><stop offset="96.28%" stop-color="#ED8C5C"/><stop offset="100%" stop-color="#FF9254"/></linearGradient><linearGradient id="L" x1="42.284%" x2="57.361%" y1="1.538%" y2="89.271%"><stop offset="0%" stop-color="#090000"/><stop offset="43.32%" stop-color="#FFF"/><stop offset="100%"/></linearGradient><linearGradient id="M" x1="109.396%" x2="-11.868%" y1="73.874%" y2="21.476%"><stop offset="0%" stop-color="#270036"/><stop offset="48.66%" stop-color="#22003D"/><stop offset="100%" stop-color="#424577"/></linearGradient><linearGradient id="N" x1="45.685%" x2="50.686%" y1="9.429%" y2="84.868%"><stop offset="0%" stop-color="#311842"/><stop offset="46.11%" stop-color="#190C4B"/><stop offset="100%" stop-color="#000054"/></linearGradient><linearGradient id="O" x1="52.22%" x2="43.977%" y1="52.23%" y2="41.244%"><stop offset="0%" stop-color="#270036"/><stop offset="59.36%" stop-color="#4F008B"/><stop offset="100%" stop-color="#4C24B1"/></linearGradient><linearGradient id="P" x1="101.275%" x2="-5.871%" y1="42.506%" y2="53.615%"><stop offset="0%" stop-color="#311842"/><stop offset="46.11%" stop-color="#190C4B"/><stop offset="100%" stop-color="#000054"/></linearGradient><linearGradient id="Q" x1="57.089%" x2="45.492%" y1="61.18%" y2="42.217%"><stop offset="0%" stop-color="#1DACFF"/><stop offset="11.2%" stop-color="#20A9FB"/><stop offset="22.63%" stop-color="#28A0EF"/><stop offset="34.18%" stop-color="#3690DA"/><stop offset="45.8%" stop-color="#497BBE"/><stop offset="57.37%" stop-color="#625F99"/><stop offset="58.53%" stop-color="#655C95"/><stop offset="63.67%" stop-color="#6F5F91"/><stop offset="72.3%" stop-color="#896886"/><stop offset="83.36%" stop-color="#B37774"/><stop offset="96.28%" stop-color="#ED8C5C"/><stop offset="100%" stop-color="#FF9254"/></linearGradient><linearGradient id="R" x1="41.341%" x2="54.919%" y1=".9%" y2="94.422%"><stop offset="0%" stop-color="#1DACFF"/><stop offset="11.2%" stop-color="#20A9FB"/><stop offset="22.63%" stop-color="#28A0EF"/><stop offset="34.18%" stop-color="#3690DA"/><stop offset="45.8%" stop-color="#497BBE"/><stop offset="57.37%" stop-color="#625F99"/><stop offset="58.53%" stop-color="#655C95"/><stop offset="63.67%" stop-color="#6F5F91"/><stop offset="72.3%" stop-color="#896886"/><stop offset="83.36%" stop-color="#B37774"/><stop offset="96.28%" stop-color="#ED8C5C"/><stop offset="100%" stop-color="#FF9254"/></linearGradient><radialGradient id="q" cx="49.969%" cy="50.017%" r="59.577%" fx="49.969%" fy="50.017%" gradientTransform="matrix(.73837 0 0 1 .13 0)"><stop offset="0%" stop-color="#A6FFFF"/><stop offset="19.88%" stop-color="#A4FDFF"/><stop offset="31.25%" stop-color="#9FF4FF"/><stop offset="40.47%" stop-color="#95E6FF"/><stop offset="48.55%" stop-color="#87D3FF"/><stop offset="55.87%" stop-color="#76B9FF"/><stop offset="62.55%" stop-color="#609AFF"/><stop offset="65.24%" stop-color="#568BFF"/></radialGradient></defs><g fill="none"><path fill="url(#a)" d="M736.79 542.13s80.79-104.31-8.67-193.73c-57.92-57.89-75.66-69.61-82.74-99.9C630.16 183.34 574.6.24 412.97.24c-273.22 0-295.8 280.85-295.8 280.85S38.99 296.14 9.88 399.71c-27.58 98.14 11.56 147.24 11.56 147.24l715.35-4.82Z" transform="translate(11)"/><g fill="#FFF" transform="translate(270 25)"><circle cx="114.53" cy="2.86" r="1.87"/><path d="M182.47 59.01c0 .51-.41.92-.92.92s-.92-.41-.92-.92.41-.92.92-.92.92.41.92.92ZM72.43 74.82c0 1.4-1.13 2.53-2.53 2.53s-2.53-1.13-2.53-2.53 1.13-2.53 2.53-2.53a2.54 2.54 0 0 1 2.53 2.53ZM4.53 63.07c0 1.07-.87 1.94-1.94 1.94-1.07 0-1.94-.87-1.94-1.94 0-1.07.87-1.94 1.94-1.94a1.93 1.93 0 0 1 1.94 1.94ZM174.28 7.81c0 .98-.79 1.77-1.77 1.77s-1.77-.79-1.77-1.77.79-1.77 1.77-1.77c.97 0 1.77.8 1.77 1.77Z"/></g><path fill="url(#b)" d="M210.88 73.59c14.23 14.3 37.36 14.36 51.66.13 14.3-14.23 14.36-37.35.13-51.66-14.23-14.3-37.36-14.36-51.66-.13-14.3 14.23-14.36 37.36-.13 51.66Z" transform="translate(270 25)"/><path fill="url(#c)" d="M372.94 90.81 187.42.28h-.88L1.02 90.81S-.66 172.4 4.93 216.54c6.21 49.04 30.18 143.61 85.5 200.05s96.11 64.82 96.11 64.82h.88s40.79-8.38 96.11-64.82c55.32-56.44 79.29-151.01 85.5-200.05 5.59-44.15 3.91-125.73 3.91-125.73Z" transform="translate(214 53)"/><path fill="url(#d)" d="M340.94 109.06 185.36 33.14h-.74L29.04 109.06s-1.41 68.42 3.28 105.44c5.21 41.13 25.31 120.44 71.7 167.77 46.39 47.33 80.6 54.36 80.6 54.36h.74s34.21-7.03 80.6-54.36c46.39-47.33 66.49-126.64 71.7-167.77 4.69-37.02 3.28-105.44 3.28-105.44Z" transform="translate(214 53)"/><path fill="url(#e)" d="M23.14 17.76S62.44.8 118.41.8c55.98 0 98.1 13.85 107.43 20.36 9.33 6.5 12.16 21.49 14.42 41.56 2.26 20.07 8.76 87.36 1.41 124.11s-37.6 75.77-54.28 92.45c-16.68 16.68-41.28 33.64-54.56 35.62-13.29 1.98-30.25.28-44.1-9.05-13.85-9.33-50.32-39.86-68.7-75.2C1.65 195.31-.61 169.58.24 140.75c.85-28.84 4.8-94.27 12.44-108.28 6.78-12.44 10.46-14.71 10.46-14.71Z" transform="translate(276 133)"/><path fill="url(#f)" d="M85.61 111.34S72.46 96.92 55.5 95.65c-16.96-1.27-25.23 8.91-25.44 9.54-.21.64 1.27 4.88 5.3 5.72 4.03.86 37.96 4.46 50.25.43Z" transform="translate(276 133)"/><path fill="#9200CD" d="M361.61 244.34c-12.3 4.03-46.22.42-50.25-.42-4.03-.85-5.51-5.09-5.3-5.72 0 0-2.12-.07-4.66-1.77s-3.39-10.88-3.39-10.88-.42 1.84-.42 4.95c0 3.11.99 5.37 1.41 6.79.42 1.41-2.4 2.12-2.83 1.98-.42-.14 1.41 1.27 3.11 1.55s2.69 1.27-.57 3.25c-3.25 1.98-9.89 12.86-9.89 12.86s6.08-7.63 9.19-10.04c3.11-2.4 7.07-2.26 11.45-1.41 4.38.85 10.6 4.81 25.44 4.95 14.84.14 27-5.51 27-5.51l-.29-.58Z"/><path fill="#000" d="M373.49 223.14s-5.3-.85-12.09-5.09-25.44-16.54-36.89-18.45c-11.45-1.91-22.05.42-28.41 5.09-6.36 4.66-7.21 6.36-7.21 6.36s6.79-17.6 26.08-19.08c19.29-1.48 39.86 4.88 53.22 13.57 13.36 8.69 9.33 16.96 5.3 17.6Z"/><path fill="#9200CD" d="m372.44 191.6-.81-.46c-.53-.3-1.32-.73-2.34-1.27-2.03-1.08-4.95-2.57-8.53-4.22-3.58-1.64-7.82-3.44-12.47-5.06-2.32-.81-4.75-1.59-7.24-2.25-2.49-.67-5.06-1.24-7.64-1.64-2.58-.4-5.2-.65-7.77-.62-.64.03-1.28.05-1.91.08-.63.05-1.26.13-1.89.19-.62.08-1.23.21-1.84.31-.6.11-1.22.28-1.82.41-1.21.29-2.4.55-3.54.87-1.14.32-2.27.6-3.35.95-1.08.34-2.14.65-3.13 1.03-.5.18-1 .36-1.48.53-.48.18-.95.38-1.4.56-1.84.72-3.46 1.54-4.88 2.3-1.39.8-2.58 1.54-3.48 2.27-.91.71-1.57 1.34-1.96 1.82-.4.47-.56.76-.56.76s.15-.3.54-.78c.38-.49 1.03-1.14 1.91-1.89.88-.76 2.06-1.54 3.43-2.39 1.4-.8 3.01-1.67 4.84-2.46.46-.2.92-.41 1.4-.61.48-.19.97-.38 1.47-.58.99-.41 2.05-.76 3.12-1.13 1.07-.39 2.2-.71 3.35-1.06 1.15-.37 2.33-.66 3.52-.98.61-.15 1.19-.33 1.83-.47.63-.12 1.26-.28 1.9-.38.64-.08 1.29-.19 1.94-.25.65-.05 1.31-.09 1.97-.14 2.64-.11 5.32.06 7.97.4 2.65.33 5.28.84 7.83 1.44 2.56.59 5.04 1.31 7.42 2.06 4.77 1.5 9.11 3.2 12.79 4.75 3.68 1.56 6.69 2.98 8.78 4.02 1.05.52 1.86.94 2.42 1.23.56.3.86.45.86.45a1.273 1.273 0 0 1-1.19 2.25c-.01-.01-.02-.01-.03-.02l-.03-.02ZM361.4 218.05c-6.79-4.24-25.44-16.54-36.89-18.45-11.45-1.91-22.05.42-28.41 5.09-.59.44-1.14.85-1.64 1.23-1.17.98-2.32 2.05-3.45 3.22-.44.46 19.93-9.12 43.89.85 23.96 9.96 41.77 35.62 41.77 35.62s-1.61-13.12-8.48-24.1c-1.93-.77-4.25-1.88-6.79-3.46Z"/><path fill="url(#g)" d="M160.67 111.34s13.15-14.42 30.11-15.69c16.96-1.27 25.23 8.91 25.44 9.54.21.64-1.27 4.88-5.3 5.72-4.02.86-37.95 4.46-50.25.43Z" transform="translate(276 133)"/><path fill="#2019DC" d="M436.67 244.34c12.3 4.03 46.22.42 50.25-.42 4.03-.85 5.51-5.09 5.3-5.72 0 0 2.12-.07 4.66-1.77s3.39-10.88 3.39-10.88.42 1.84.42 4.95c0 3.11-.99 5.37-1.42 6.79-.42 1.41 2.4 2.12 2.83 1.98.42-.14-1.41 1.27-3.11 1.55-1.69.28-2.69 1.27.56 3.25s9.9 12.86 9.9 12.86-6.08-7.63-9.19-10.04c-3.11-2.4-7.07-2.26-11.45-1.41-4.38.85-10.6 4.81-25.44 4.95-14.84.14-27-5.51-27-5.51l.3-.58Z"/><path fill="#000" d="M424.8 223.14s5.3-.85 12.09-5.09 25.44-16.54 36.89-18.45c11.45-1.91 22.05.42 28.41 5.09 6.36 4.66 7.21 6.36 7.21 6.36s-6.78-17.6-26.08-19.08c-19.29-1.48-39.86 4.88-53.22 13.57-13.36 8.69-9.33 16.96-5.3 17.6Z"/><path fill="#2019DC" d="M424.6 189.38s.3-.16.86-.45c.56-.29 1.37-.71 2.42-1.23 2.09-1.03 5.1-2.46 8.78-4.02 3.68-1.55 8.02-3.25 12.79-4.75 2.38-.75 4.86-1.47 7.42-2.06 2.56-.6 5.18-1.1 7.83-1.44 2.65-.33 5.33-.51 7.97-.4.66.05 1.32.09 1.97.14.65.07 1.3.17 1.94.25.64.1 1.27.25 1.9.38.64.14 1.22.32 1.83.47 1.2.32 2.38.62 3.52.98 1.15.35 2.28.67 3.35 1.06 1.08.37 2.13.72 3.12 1.13.5.2.99.39 1.47.58.48.2.94.41 1.4.61 1.83.78 3.44 1.66 4.84 2.46 1.37.85 2.55 1.63 3.43 2.39.89.75 1.53 1.39 1.91 1.89.39.48.54.78.54.78s-.16-.29-.56-.76c-.39-.48-1.06-1.11-1.96-1.82-.9-.73-2.09-1.47-3.48-2.27-1.42-.75-3.04-1.57-4.88-2.3-.46-.18-.92-.38-1.4-.56-.48-.17-.98-.35-1.48-.53-1-.38-2.05-.69-3.14-1.03-1.08-.36-2.2-.64-3.35-.95-1.14-.33-2.33-.59-3.54-.87-.6-.13-1.22-.3-1.82-.41-.61-.1-1.22-.23-1.84-.31-.63-.06-1.25-.14-1.88-.19-.64-.03-1.27-.05-1.92-.08-2.57-.03-5.18.22-7.76.62-2.59.41-5.15.98-7.64 1.64-2.5.66-4.92 1.44-7.24 2.25-4.65 1.62-8.89 3.42-12.47 5.06-3.58 1.65-6.51 3.14-8.53 4.22-1.01.54-1.8.97-2.33 1.27l-.81.46-.02.01c-.61.35-1.39.13-1.73-.48-.35-.61-.13-1.39.48-1.73-.01 0 0-.01.01-.01ZM436.89 218.05c6.79-4.24 25.44-16.54 36.89-18.45 11.45-1.91 22.05.42 28.41 5.09.59.44 1.14.85 1.64 1.23 1.17.98 2.32 2.05 3.45 3.22.44.46-19.93-9.12-43.89.85-23.96 9.96-41.77 35.62-41.77 35.62s1.61-13.12 8.48-24.1a43.7 43.7 0 0 0 6.79-3.46Z"/><path fill="#9200CD" d="M307.33 276.78c0-9.37 7.59-16.96 16.96-16.96 9.37 0 16.96 7.59 16.96 16.96 0 9.37-7.59 16.96-16.96 16.96-9.36 0-16.96-7.59-16.96-16.96Z"/><path fill="#2019DC" d="M455.97 276.78c0-9.37 7.59-16.96 16.96-16.96 9.37 0 16.96 7.59 16.96 16.96 0 9.37-7.59 16.96-16.96 16.96-9.37 0-16.96-7.59-16.96-16.96Z"/><path fill="#9200CD" d="M289.31 293.11s8.89 13.1 27.35 14.84c22.48 2.12 46.43-14.63 46.43-14.63s-11.45 12.51-26.29 16.75-29.26 1.48-30.11 1.91c-.85.42-5.73 4.88 8.91 35.41 14.63 30.53 30.74 64.67 30.74 64.67s-24.38-34.14-36.68-61.91c-12.3-27.78-13.99-39.86-9.97-41.98.01-.01-8.89-14.43-10.38-15.06Z"/><path fill="#2019DC" d="M507.7 294.17s-8.89 13.1-27.35 14.84c-22.48 2.12-46.43-14.63-46.43-14.63s11.45 12.51 26.29 16.75 29.26 1.48 30.11 1.91c.85.42 5.73 4.88-8.9 35.41-14.63 30.53-30.75 64.67-30.75 64.67s24.38-34.14 36.68-61.91c12.3-27.78 13.99-39.86 9.97-41.98 0-.01 8.9-14.43 10.38-15.06Z"/><path fill="#6F02A2" d="M386.85 233.74s-2.12 33.71-5.09 37.74c-2.97 4.03-18.45 22.05-18.23 28.62.21 6.57 4.45 13.36 4.45 13.36s-3.61-9.97.64-15.48c4.24-5.51 12.93-16.96 13.36-13.15.42 3.82-3.61 19.08-.42 25.23 3.18 6.15 13.78 10.39 17.17 9.97 3.39-.42 12.51-3.18 15.69-8.48 3.18-5.3 2.54-9.97 1.48-16.75-1.06-6.78-2.33-11.45 0-10.39 2.33 1.06 13.36 12.3 13.99 17.81.64 5.51-.85 11.87-.85 11.87s6.36-8.48 3.39-16.96-17.81-23.96-18.66-30.11c-.85-6.15-2.76-32.87-2.97-32.23-.21.64-2.97 33.92-1.7 50.25 1.27 16.33 4.45 23.75-.85 27.35-5.3 3.61-11.45 1.91-15.9.85-4.45-1.06-8.06-4.24-6.36-13.36 1.7-9.1 3.61-55.54.86-66.14Z"/><path fill="#231F20" d="M372.22 314.1s4.66 4.88 7.63 5.73c2.97.85 3.18-3.6-.85-5.09-4.03-1.49-6.78-.64-6.78-.64ZM424.67 314.1s-4.67 4.88-7.63 5.73c-2.97.85-3.18-3.6.85-5.09 4.03-1.49 6.78-.64 6.78-.64ZM407.79 361.76c-3.13 0-6.44-.05-9.94-.17-33.21-1.11-48.06-4.67-48.16-4.71a.86.86 0 0 1-.54-1.07c.15-.44.62-.68 1.07-.54.18.05 15.11 3.54 47.68 4.62 31.32 1.04 47.73-3.11 47.89-3.15.45-.12.92.15 1.03.61.12.45-.15.92-.61 1.03-.14.05-13.32 3.38-38.42 3.38Z"/><path fill="#231C29" d="M396.98 384.55c-5.51 0-10.28-.45-14.17-1.05-11.28-1.73-17.69-4.94-17.95-5.08a1.27 1.27 0 0 1-.56-1.71c.32-.63 1.08-.88 1.71-.56.11.06 6.44 3.2 17.31 4.85 10.07 1.53 26.23 2.07 45.98-4.08.67-.21 1.38.17 1.59.84.21.67-.16 1.38-.83 1.59-12.67 3.94-23.91 5.2-33.08 5.2Z"/><path fill="#000" d="M406.56 393.61c.59-3.55 2.52-7.71 3.64-9.91-4.77.61-9.19.85-13.22.85-4.4 0-8.31-.29-11.7-.71 1.7 2.6 4.2 7.65 3.05 13.59-1.7 8.69-5.51 14.84-4.24 25.23 1.27 10.39 5.09 30.75 7.21 31.81 2.12 1.06 12.3 1.27 13.78-2.76 1.48-4.03 7-29.9 5.94-36.47-1.06-6.57-5.3-16.54-4.46-21.63ZM323.87 312.19s12.51 23.96 16.54 24.81c4.03.85 27.99.85 33.93-2.33 5.94-3.18 6.15-8.48 10.39-11.24s10.6 1.06 13.36 1.48v11.66s-9.97 12.51-15.48 13.57c-5.51 1.06-34.99 0-40.92-.85-5.94-.85-12.72-5.72-14.84-9.75-2.12-4.03-15.05-27.35-15.05-27.35h12.07Z"/><path fill="#000" d="M471.87 313.68s-12.3 22.47-16.33 23.32c-4.03.85-27.99.85-33.93-2.33-5.94-3.18-6.15-8.48-10.39-11.24s-10.6 1.06-13.36 1.48v11.66s9.97 12.51 15.48 13.57c5.51 1.06 34.98 0 40.92-.85 5.94-.85 12.72-5.72 14.84-9.75 2.12-4.03 14.84-26.08 14.84-26.08l-12.07.22Z"/><path fill="url(#h)" d="M18.44.93s-3.13 8.95-5.14 10.24C11.29 12.46 1.34 17.41.89 19.29c-.45 1.88-.45 4-.45 4v3.06s7.38 2.12 12.97 1.3c5.59-.82 8.16-1.88 10.85-4.59 2.68-2.71 4.47-3.77 4.47-3.77l.45 2.24 9.28-4.24-.67-6.24-.67-9.77c-.01 0-4.82 3.3-18.68-.35Z" transform="translate(349 513)"/><path fill="#000" d="M359.83 538.54c-3.35.24-8.01-1.07-10.4-1.88v2.7s7.38 2.12 12.97 1.3c5.59-.82 8.16-1.88 10.85-4.59 2.68-2.71 4.47-3.77 4.47-3.77l.45 2.24 9.28-4.24-.49-4.58c-3.95 2.01-11.3 5.93-14.49 8.7-4.47 3.88-8.58 3.83-12.64 4.12Z"/><path fill="url(#i)" d="M20.47.93s3.13 8.95 5.14 10.24c2.01 1.29 11.97 6.24 12.41 8.12.45 1.88.45 4 .45 4v3.06s-7.38 2.12-12.97 1.3c-5.59-.82-8.16-1.88-10.85-4.59-2.68-2.71-4.47-3.77-4.47-3.77l-.45 2.24-9.28-4.24.67-6.24.67-9.77S6.6 4.58 20.47.93Z" transform="translate(422 513)"/><path fill="#000" d="M450.07 538.54c3.35.24 8.01-1.07 10.4-1.88v2.7s-7.38 2.12-12.97 1.3c-5.59-.82-8.16-1.88-10.85-4.59-2.68-2.71-4.47-3.77-4.47-3.77l-.45 2.24-9.28-4.24.49-4.58c3.95 2.01 11.3 5.93 14.49 8.7 4.48 3.88 8.59 3.83 12.64 4.12ZM389.54 247.56l-2.09-6.93s-3.35-8.61-3.91-11.74c-.56-3.13-2.91-14.65.45-21.47 2.21-4.49 8.95-5.81 14.2-5.93 4.81-.1 11.17 1.75 12.52 9.73 1.12 6.6 1.45 13.87 1.45 17 0 3.13-2.57 11.96-2.57 11.96l-2.36 7.59-8.68 9.27-9.01-9.48Z"/><path fill="#FFF" d="M383.48 213.64c1.22-.49.98-8.3 12.21-6.84 11.23 1.47 15.14 6.59 17.34 2.69 2.2-3.91 2.44-4.4 2.44-4.4s-2.69-4.15-4.88-5.62c-2.91-1.94-14.9-6.35-23.93-1.71-9.04 4.64-7.57 13.19-7.57 13.19"/><path fill="url(#j)" d="M134.06 61.06c-.89-3.13-36.34-32.2-36.34-32.2s-4.81 4.1-6.15 6.49c-1.34 2.39-3.58 8.16-3.58 8.16l20.42 13.97s-19.67 3.74-21.31 3.29c-1.64-.45-4.77-2.53-4.77-2.53l-6.11-5.67-4.17 6.86-4.48 2.62-4.48-2.62-4.54-6.71-5.75 5.52s-3.13 2.09-4.77 2.53c-1.64.45-19.95-3.05-19.95-3.05l19.06-14.21s-2.24-5.78-3.58-8.16c-1.34-2.39-6.15-6.49-6.15-6.49S1.96 57.93 1.07 61.06c-.89 3.13-.67 7.83 1.34 9.62 2.01 1.79 31.31 14.84 31.31 14.84s5.25 47.67 4.03 49.5c-2.39 3.58-1.57 5.89-1.57 5.89s13.46 3.7 29.24 4.41v.1c.73 0 1.44-.01 2.15-.02.71.02 1.42.02 2.15.02v-.1c15.79-.71 29.24-4.41 29.24-4.41s.82-2.31-1.57-5.89c-1.22-1.83 4.03-49.5 4.03-49.5s29.3-13.05 31.31-14.84c2-1.79 2.22-6.49 1.33-9.62Z" transform="translate(331 195)"/><path fill="url(#k)" d="M43.2 136.36c-4.66-13.02-10.01-57.15-10.01-57.15l-.97 5.65c.93.42 1.47.66 1.47.66s5.25 47.67 4.03 49.5c-2.39 3.58-1.57 5.89-1.57 5.89s5.43 1.49 13.44 2.76c0-.01-5.42-4.59-6.39-7.31Z" transform="translate(331 195)"/><path fill="url(#l)" d="m87.99 43.51 23.35 15.43 7.32 1.71" transform="translate(331 195)"/><path fill="url(#m)" d="M47.11 43.51 24.88 59.43l-7.81 1.46" transform="translate(331 195)"/><path fill="url(#n)" d="M134.41 66.89c-10.24 6.83-32.59 13.54-32.59 13.54l-.41 5.08s29.3-13.05 31.31-14.84c.9-.8 1.44-2.2 1.69-3.78Z" transform="translate(331 195)"/><path fill="url(#o)" d="M33.19 79.21S8.6 70.89.96 68.1c.3 1.07.77 1.98 1.43 2.58C4.4 72.47 33.7 85.52 33.7 85.52l-.51-6.31Z" transform="translate(331 195)"/><path fill="#1A0C4D" d="M386.53 237.45s-2.21.61-2.77-.29c-.56-.89-4.03-6.93-3.24-8.5.78-1.57 2.8-1.57 2.8-1.57s2.43 9.02 3.21 10.36Z"/><path fill="#FFF" d="M370.9 225.98c-.33-.14 2.68-7.27 3.69-8.05 1.01-.78 17.78-4.36 18.79-3.8 1.01.56.56 2.24.56 2.24s-6.82 11.74-5.37 11.74c1.45 0 3.58-.45 4.7-1.01s3.13-1.79 4.36-1.34c1.23.45 1.12 1.12 0 2.24s-6.04 4.03-8.39 4.81c-2.35.78-5.37 2.24-7.49 2.57-2.12.34-4.36.45-4.36.45s-5.15-9.29-6.49-9.85Z"/><path fill="url(#p)" d="m38.49 142.32.6 8.35s9.84 4.32 27.58 4.32 31.16-4.32 31.16-4.32l-.15-9.54s-24.16 8.35-59.19 1.19Z" transform="translate(331 195)"/><path fill="url(#q)" d="M75.61 154.02c0 .49-.4.89-.89.89H63.39c-.49 0-.89-.4-.89-.89v-7.9c0-.49.4-.89.89-.89h11.33c.49 0 .89.4.89.89v7.9Z" transform="translate(331 195)"/><path fill="#000" d="M370.08 345.67s-2.7 105.94-3.61 122.06c-.01.26-.49 46.38-.49 46.38s10 2.96 16.33 1.88c4.14-.71 4.47-1.41 4.47-1.41l11.18-124.02 3.35-.47 21.02 124.49s5.59 2.24 12.52 1.65c2.58-.22 7.94-2.24 7.94-2.24l-13.98-168.33c.02.01-29.13 8.88-58.73.01Z"/><path fill="#FFF" d="m383.78 253.23-4.33 2.3 9.34-1.11 9.76 2.62-8.84-9.39zM398.68 256.87l8.53-3.04 11.07 2.12-4.94-2.87-6.13-5.52z"/><path fill="#1A0C4D" d="M410.71 235.71c-.13.31 2.24.67 2.8-1.34.56-2.01 1.79-5.93 1.45-7.38-.34-1.45-2.8-1.01-2.8-1.01s-.55 7.61-1.45 9.73Z"/><path fill="#FFF" d="M426.22 225.98c.33-.14-2.68-7.27-3.69-8.05-1.01-.78-17.78-4.36-18.79-3.8-1.01.56-.56 2.24-.56 2.24s6.82 11.74 5.37 11.74c-1.45 0-3.58-.45-4.7-1.01s-3.13-1.79-4.36-1.34c-1.23.45-1.12 1.12 0 2.24s6.04 4.03 8.39 4.81c2.35.78 5.37 2.24 7.49 2.57 2.12.34 4.36.45 4.36.45s5.14-9.29 6.49-9.85Z"/><path fill="url(#r)" d="m73.6 21.18-4.62 1.94s-.67 2.09-.67 3.73c0 1.64.52 3.95.52 3.95l8.72 2.31s-7.31-4.03-3.95-11.93Z" transform="translate(331 195)"/><path fill="url(#s)" d="m61.67 21.18 4.62 1.94s.67 2.09.67 3.73c0 1.64-.52 3.95-.52 3.95l-8.72 2.31s7.3-4.03 3.95-11.93Z" transform="translate(331 195)"/><path fill="url(#t)" d="M65.32 22.67h4.77v7.6h-4.77z" transform="translate(331 195)"/><path fill="url(#u)" d="M65.32 24.98c0-1.23 1-2.24 2.24-2.24 1.23 0 2.24 1 2.24 2.24 0 1.24-1 2.24-2.24 2.24-1.24 0-2.24-1-2.24-2.24Z" transform="translate(331 195)"/><path fill="url(#v)" d="M36.32 26.04c0-7.3 5.92-13.22 13.22-13.22 7.3 0 13.23 5.92 13.23 13.22 0 7.3-5.92 13.23-13.23 13.23-7.3-.01-13.22-5.93-13.22-13.23Z" transform="translate(331 195)"/><path fill="url(#w)" d="M39.73 26.04c0-5.42 4.39-9.81 9.81-9.81 5.42 0 9.81 4.39 9.81 9.81 0 5.42-4.39 9.81-9.81 9.81-5.42 0-9.81-4.39-9.81-9.81Z" transform="translate(331 195)"/><path fill="url(#x)" d="M72.62 26.85c0-7.3 5.92-13.22 13.22-13.22 7.3 0 13.23 5.92 13.23 13.22 0 7.3-5.92 13.23-13.23 13.23-7.3 0-13.22-5.92-13.22-13.23Z" transform="translate(331 195)"/><path fill="url(#y)" d="M76.04 26.85c0-5.42 4.39-9.81 9.81-9.81 5.42 0 9.81 4.39 9.81 9.81 0 5.42-4.39 9.81-9.81 9.81-5.42 0-9.81-4.39-9.81-9.81Z" transform="translate(331 195)"/><path fill="url(#z)" d="m67.68 61.87 2.6 25.62-2.33 31.94 2.93 25.39-3.33.57-2.92-25.99 2.34-31.56-2.61-26.7 3.32.73" transform="translate(331 195)"/><path fill="#000" d="M562.25 507.73s-1.28 5.72-1.28 7.82c0 2.1.7 7.82.7 7.82l9.92-.23.47-2.45 2.8 2.68 27.77-.23s-.47-4.32-3.5-5.48c-3.03-1.17-8.28-.47-11.32-2.22-3.03-1.75-13.95-8.97-13.95-8.97l-11.61 1.26Z"/><path fill="#FFF" d="M547.47 257.79s-8.32-6.92-9.49-11.05c-1.17-4.12-.23-7.31-.23-7.31s-2.18-7.47 1.71-11.98c3.89-4.51 12.29-6.69 17.74-5.52 5.44 1.17 11.36 4.67 12.99 4.36 1.63-.31 1.79-1.24 1.79-1.24s.93 8.63-3.97 8.71c-4.9.08-10.11 0-11.9.78l-3.03 1.32s.39 3.42-.08 5.21c-.47 1.79-1.17 2.57-1.17 2.57s-3.66-3.19-5.52-2.72c-1.87.47-4.36 4.51-1.87 7.23 2.49 2.72 5.29 3.19 5.29 3.19l-2.26 6.45Z"/><path fill="#000" d="M572.2 243.25s.08-.31-.86-4.2c-.93-3.89-3.34-5.29-3.34-5.29-4.9.08-10.11 0-11.9.78l-3.03 1.32s.39 3.42-.08 5.21c-.47 1.79-1.17 2.57-1.17 2.57s-3.66-3.19-5.52-2.72c-1.87.47-4.36 4.51-1.87 7.23 2.49 2.72 5.29 3.19 5.29 3.19l-2.26 6.46s-.47 4.98-.54 5.29c-.08.31 3.11.08 6.46.47 3.34.39 12.91 2.88 12.91 2.88l-.39-2.8s7.55.16 8.63-.54c1.09-.7-.47-10.42-.47-10.42s4.05-1.79 4.36-2.26c.32-.48-6.22-7.17-6.22-7.17ZM595.5 250.55s-2.74-3.34-4.93-3.61c-2.2-.27-4.93-.04-5.34-.91-.41-.87-2.53-5.44-3-6.22-.47-.78-3.5-3.98-2.94-4.73.56-.75 3.42.42 5.43 2.16 2.02 1.74 4.83 5.06 5.94 5.07 1.11.01 13.44-2.63 13.44-2.63s1.18 3.09 1.29 4.42c.11 1.33 1.74 3.93 1.74 3.93l-11.63 2.52Z"/><path fill="#FFF" d="M628.22 242.61c-.35-.03 1.42-2.59 1.42-2.59s4.04.18 7.29 1.55 3.23 2.44 3.23 2.44-1.14 3.8-1.09 3.43c.05-.36-3.68-4.13-10.85-4.83ZM596.18 253.71l-1.31-2.95 13.02-2.74 1.33 2.46z"/><path fill="url(#A)" d="M188.34.27s2.47 1.64 3.74 5.56c1.26 3.91-.86 7.55-.86 7.55L60.55 40.05s-4.33-1.39-4.01-5.74" transform="translate(516 205)"/><path fill="url(#B)" d="m130.64 13.92-45.02 11.5s-.82 1.97.99 8.38c.42 1.5 1.15 1.48 1.15 1.48l45.18-9.04c0 .01-2.46-9.52-2.3-12.32Z" transform="translate(516 205)"/><path fill="url(#C)" d="M127.2 14.8c.27 2.92.94 7.86 2.58 12.08l3.16-.63s-2.46-9.53-2.3-12.32l-3.44.87Z" transform="translate(516 205)"/><path fill="#000" d="M590.17 242.18s-6.58-5.5-6.22-7.24c.36-1.74 3.03-1.88 3.03-1.88s1.83-1.95 3.2-1.83c1.37.12 1.37.91 1.37.91s.71-1.97 1.98-1.99c1.27-.02 1.44 1.22 1.44 1.22s1.14-1.82 2.93-1.62c1.79.2 2.5 2.19 2.5 2.19s-1.31 1.77-1.08 2.92c.23 1.14 2.05 4.66 1.67 5.14-.37.47-5.77 3.62-10.82 2.18ZM629.61 239.82s1.09-2.86.87-3.56c-.22-.7-4.76-5.49-4.92-7.85-.16-2.36 1.21-6.19 1.96-6.43.75-.23 1.59-.4 1.59-.4s3.12-1.87 4.95-2.24c1.83-.37 4.12-.42 4.12-.42s2.83-.16 3.47.29l.65.45s-1.09 6.42-1 8.05c.09 1.64 1.57 4.64 1.5 5.48-.07.84-2.78 6.68-2.78 6.68s-.35 3.38-.4 3.14c-.06-.23-3.31-2.22-10.01-3.19Z"/><path fill="url(#D)" d="m59.29 67.32 26.77-3.61-6.54-14.75 14.59-3.77 6.86 11.59-7.32 14.09-29.14 1.11s-3.71-3.66-5.22-4.66Z" transform="translate(516 205)"/><path fill="url(#E)" d="M25.95 58.24s13.07-.93 23.03 2.8 15.71 12.29 15.71 12.29 7.62 18.36 8.87 23.03c1.25 4.67 7 25.98 7 28.31 0 2.33.31 32.05-.16 34.07-.47 2.02-2.33 4.04-2.33 4.04l-47.92 3.89s3.89-22.56 3.89-25.67c0-3.11-.93-11.98-1.4-14.62-.47-2.64-12.76-46.05-12.76-47.45 0-1.4 6.07-14.94 6.07-14.94v-5.75Z" transform="translate(516 205)"/><path fill="url(#F)" d="M80.6 131.75c-.03-3.68-.05-6.44-.05-7.08 0-2.33-5.76-23.65-7-28.31-1.24-4.67-8.87-23.03-8.87-23.03s-5.76-8.56-15.71-12.29c-9.96-3.73-23.03-2.8-23.03-2.8V64s14.62.47 22.09 4.04c7.47 3.58 15.56 20.54 18.83 28.32 3.27 7.78 13.54 35.63 13.54 35.63s.07-.09.2-.24Z" transform="translate(516 205)"/><path fill="url(#G)" d="M41.39 73.78s12.54-1.57 20.78-1.65c8.24-.07 31.49-1.26 31.49-1.26s8.89-17.34 12.36-23.75c3.47-6.41 6.22-9.5 6.22-9.5s4.48 1.16 7.04 2.07c2.56.91 3.81 2.76 3.81 2.76s-9.83 33.52-11.69 36.91c-1.86 3.39-7.37 6.72-11.1 7.95-3.72 1.23-29.89 6.02-39.93 6.61-10.04.59-16.9-.4-16.9-.4s-5.65-6-5.54-11.74c.1-5.74 3.46-8 3.46-8Z" transform="translate(516 205)"/><path fill="#FFF" d="m611.32 277.42 17.58-34.34-.7-.44c-.26.3-2.9 3.39-6.19 9.47-3.47 6.41-12.36 23.75-12.36 23.75s-23.25 1.19-31.49 1.26c-8.24.07-20.78 1.65-20.78 1.65s-.2.13-.49.41c5.27-.28 54.43-1.76 54.43-1.76Z" opacity=".5"/><path fill="#000" d="M549.72 371.36c0 .62 1.87 3.11 3.11 4.67 1.24 1.56 1.87 2.02 1.87 2.02l6.54 56.94s-1.71 10.89-1.4 23.96c.31 13.07 1.09 49.01 1.09 49.01l15.87-.78s6.85-64.25 8.09-70.01c1.24-5.76 2.33-24.89 3.42-40.76 1.09-15.87 1.09-28.63 1.09-28.63l-39.68 3.58Z"/><path fill="#000" d="M554.7 378.05c-.47.62-8.09 50.87-9.33 54.14-1.24 3.27-14 30.65-16.34 37.65-2.33 7-7.16 31.89-7.16 31.89s15.09 4.2 15.09 3.73c0-.47 10.58-31.74 16.18-40.29 5.6-8.56 6.69-9.8 6.69-9.8s.16-10.11.78-15.25c.62-5.13.78-5.6.78-5.6l-6.69-56.47Z"/><path fill="#000" d="M522.93 502.01s-3.97 6.42-4.78 8.52c-.82 2.1-1.63 6.3-1.63 6.3l10.39 3.27 2.33-2.33-.82 2.57s7.82 3.03 9.68 3.15c1.87.12 19.37-.35 19.37-.35s.58-4.08-4.32-6.07c-4.9-1.98-7.12-.23-10.5-2.45s-7.93-9.45-7.93-9.45l-11.79-3.16Z"/><path fill="url(#H)" d="M.48 16.79s-.25 2.71.99 8.63c1.23 5.91 2.46 8.38 2.46 8.38l62.6-10.35s2.72-4.62.74-13.06C65.38 2.34 62.34.04 62.34.04L.48 16.79Z" transform="translate(646 200)"/><path fill="url(#I)" d="m64.73 23.74 1.8-.3s2.72-4.62.74-13.06C65.38 2.33 62.34.03 62.34.03L59.9.69c2.26 3.02 6.62 10.67 4.83 23.05Z" transform="translate(646 200)"/><g fill="#000"><path d="M240.45 439.34s-1.22 12.55-4.28 16.22c-3.06 3.67-6.73 9.49-13.47 8.88-6.73-.61-68.24-15.1-68.24-15.1l-1.43 68.75s-13.46 1.22-18.36.81c-4.9-.41-8.36-2.24-8.36-2.24s-2.24-78.34-1.84-80.58c.41-2.25 7.75-16.32 13.67-16.12 5.91.2 102.31 19.38 102.31 19.38Z"/><path d="M127.98 517.22s-8.42 5.97-13.47 7.04c-5.05 1.07-10.86 2.29-12.09 3.98-1.22 1.68-.31 4.44-.31 4.44s24.18 2.91 31.06 2.75c6.89-.15 8.26-.61 8.26-.61l2.3-2.91-.15 3.21 12.24-.46s.31-7.19-.76-10.4-2.6-6.12-2.6-6.12-17.74 2.9-24.48-.92ZM190.72 457.7s-4.74 61.05-4.28 62.89c.46 1.84 4.59 9.64 9.03 10.71 4.44 1.07 80.94.76 80.94.31 0-.46-.15-11.02-.15-16.83 0-5.81-.92-8.72-.92-8.72l-62.58 2.6s7.5-23.1 9.33-30.91c1.84-7.8 2.91-13.16 2.91-13.16s-7.51-1.23-34.28-6.89Z"/><path d="M275.33 506.05c-.07-1.02 3.98-4.44 6.27-6.58 2.29-2.14 5.05-2.91 5.05-2.91l8.57 12.24s1.53 4.9 4.9 9.18c3.37 4.29 11.32 18.06 11.48 19.28.15 1.22-3.83 5.2-9.33 2.45-5.51-2.75-18.06-15.3-20.96-15.76-2.91-.46-4.59-.77-4.59-.77s-1.08-12.39-1.39-17.13Z"/></g><path fill="#FFF" d="M207.91 319.43s7.21-11.01 7.09-16.21c-.11-5.21-2.33-8.58-2.33-8.58s-.13-9.45-6.25-13.31c-6.13-3.86-16.66-3.4-22.58-.1-5.91 3.3-11.53 9.47-13.54 9.69-2.01.22-2.52-.81-2.52-.81s1.99 10.37 7.71 8.71c5.72-1.66 11.75-3.6 14.11-3.34 2.36.27 4 .46 4 .46s.77 4.12 1.95 6.03c1.18 1.91 2.27 2.57 2.27 2.57s3.11-5.01 5.45-5.13c2.33-.12 6.67 3.69 4.75 7.74-1.92 4.05-5.01 5.59-5.01 5.59l4.9 6.69Z"/><path fill="#000" d="M173.98 311.34s-.2-.33-.5-5.19c-.3-4.85 2-7.34 2-7.34 5.72-1.66 11.75-3.6 14.11-3.34 2.36.27 4 .46 4 .46s.77 4.12 1.95 6.03c1.18 1.91 2.27 2.57 2.27 2.57s3.11-5.01 5.45-5.13c2.33-.12 6.67 3.69 4.75 7.74-1.92 4.05-5.01 5.59-5.01 5.59l4.92 6.7s2.32 5.62 2.52 5.95c.2.33-3.59 1.2-7.34 2.84s-13.98 7.94-13.98 7.94l-.55-3.39s-8.71 2.87-10.23 2.44c-1.51-.43-3.17-12.28-3.17-12.28s-5.34-.64-5.87-1.07c-.53-.42 4.68-10.52 4.68-10.52ZM145.31 335.55s.99-5.15 3.18-6.71c2.19-1.56 5.24-2.89 5.18-4.06-.06-1.17-.45-7.28-.39-8.38.06-1.1 1.44-6.27.4-6.75-1.04-.47-3.41 2.43-4.56 5.45-1.15 3.02-2.23 8.2-3.42 8.86-1.18.66-15.88 4.97-15.88 4.97s.53 3.99 1.18 5.47c.65 1.48.41 5.22.41 5.22l13.9-4.07Z"/><path fill="#FFF" d="M105.75 345.99c.35-.24-3.02-1.94-3.02-1.94s-4.22 2.53-6.9 5.87c-2.68 3.34-2.04 4.48-2.04 4.48s3.42 3.4 3.16 3.04c-.26-.36 1.55-6.55 8.8-11.45ZM146.42 339.31l-.31-3.91-15.5 4.61.01 3.4z"/><path fill="url(#J)" d="M170.99 30.2 10.42 70.07s-1.69 3.19-.78 8.1c.91 4.91 5.29 7.58 5.29 7.58l155.09-47.09c0-.01 3.82-4 .97-8.46Z" transform="translate(0 278)"/><path fill="url(#K)" d="m79.67 66.96 51.96-16.17s.84-2.36-1.66-9.74c-.59-1.73-1.43-1.66-1.43-1.66l-52.3 13.29s3.46 11 3.43 14.28Z" transform="translate(0 278)"/><path fill="url(#L)" d="m80.43 51.62-4.19 1.06s3.46 11 3.43 14.27l4.13-1.29c-.06-6.58-1.96-11.38-3.37-14.04Z" transform="translate(0 278)"/><path fill="#000" d="M146.17 323.52s3.85-9.68 2.46-11.33c-1.4-1.65-4.33-.25-4.33-.25s-3.09-1.03-4.48-.11c-1.4.92-.94 1.77-.94 1.77s-1.9-1.69-3.27-.98c-1.36.71-.83 2.13-.83 2.13s-2.27-1.28-4.07-.04c-1.8 1.24-1.41 3.79-1.41 3.79s2.42 1.14 2.84 2.49c.42 1.35.51 6.17 1.19 6.46.69.29 8.28.53 12.84-3.93ZM102.73 344.05s-2.78-2.31-2.94-3.15c-.16-.84 2-8.32.83-10.84-1.17-2.51-4.8-5.65-5.73-5.46-.93.19-1.93.49-1.93.49s-4.39-.14-6.56.53c-2.17.66-4.65 1.92-4.65 1.92s-3.12 1.45-3.55 2.28l-.44.83s4.79 5.95 5.61 7.67c.83 1.72.94 5.64 1.49 6.47.55.82 6.75 5.25 6.75 5.25s2.28 3.26 2.2 2.98c-.08-.28 2.28-4.16 8.92-8.97Z"/><path fill="url(#M)" d="m179.51 69.12-30.69 11.63-1.54-19.55-17.78 4.41-.62 16.36 15.97 10.83 31.78-15.67c-.01-.01 1.85-6.06 2.88-8.01Z" transform="translate(0 278)"/><path fill="url(#N)" d="M216.26 45.79s-15.52 3.57-25.76 11.45c-10.24 7.88-13.88 19.88-13.88 19.88s-2.32 24.05-2.1 29.91c.22 5.87 1.12 32.68 1.95 35.39.83 2.71 11.05 37.35 12.32 39.53 1.26 2.18 4.15 3.87 4.15 3.87L250 173.28s-12.55-24.83-13.66-28.44c-1.11-3.61-3.18-14.25-3.58-17.49-.4-3.24-1.58-58.05-2.08-59.68-.5-1.63-12.37-15.19-12.37-15.19l-2.05-6.69Z" transform="translate(0 278)"/><path fill="url(#O)" d="M178.94 150.68c-1.28-4.29-2.24-7.5-2.47-8.25-.83-2.71-1.73-29.53-1.95-35.39-.22-5.87 2.1-29.91 2.1-29.91s3.64-11.99 13.88-19.88c10.24-7.89 25.76-11.45 25.76-11.45l2.05 6.69s-16.83 5.75-24.23 12.57c-7.4 6.82-10.76 29.4-11.79 39.61-1.03 10.2-3.04 46.22-3.04 46.22s-.11-.09-.31-.21Z" transform="translate(0 278)"/><path fill="url(#P)" d="M202.38 65.67s-14.31 5.57-23.16 10.26c-8.85 4.69-34.38 16.87-34.38 16.87s-19.53-13.39-26.95-18.24c-7.42-4.85-12.15-6.56-12.15-6.56s-4.12 3.83-6.33 6.29-2.47 5.16-2.47 5.16 29.9 30.14 33.85 32.69c3.95 2.55 11.77 2.92 16.46 2.08 4.68-.84 35.43-10.86 46.5-16.03 11.07-5.17 17.83-10.21 17.83-10.21s2.57-9.69-.87-15.75c-3.44-6.09-8.33-6.56-8.33-6.56Z" transform="translate(0 278)"/><path fill="#FFF" d="M127.42 360.89c14.62 10.58 17.32 12.7 18.09 12.32.77-.38 55.23-28.67 55.23-28.67l-.56.01c-4.36 1.75-14.23 5.82-20.95 9.39-8.85 4.69-34.38 16.87-34.38 16.87s-19.53-13.39-26.95-18.24c-7.42-4.85-12.15-6.56-12.15-6.56l-.08.66c0-.02 7.12 3.64 21.75 14.22Z" opacity=".5"/><path fill="url(#Q)" d="M74.61.02s1.76 2.66 3.76 9.45c2 6.79 2.09 10.01 2.09 10.01L10.11 43.43s-5.36-3.27-7.99-13.08c-2.5-9.36-.64-13.41-.64-13.41L74.61.02Z" transform="translate(0 328)"/><path fill="url(#R)" d="m12.13 42.75-2.02.69s-5.36-3.27-7.99-13.08c-2.5-9.36-.64-13.41-.64-13.41l2.89-.67c-.67 4.37-.93 14.68 7.76 26.47Z" transform="translate(0 328)"/></g></svg>